<?xml version="1.0" encoding="UTF-8" standalone="no"?>
<!-- Created with Inkscape (http://www.inkscape.org/) -->

<svg
   xmlns:dc="http://purl.org/dc/elements/1.1/"
   xmlns:cc="http://creativecommons.org/ns#"
   xmlns:rdf="http://www.w3.org/1999/02/22-rdf-syntax-ns#"
   xmlns:svg="http://www.w3.org/2000/svg"
   xmlns="http://www.w3.org/2000/svg"
   xmlns:sodipodi="http://sodipodi.sourceforge.net/DTD/sodipodi-0.dtd"
   xmlns:inkscape="http://www.inkscape.org/namespaces/inkscape"
   width="500"
   height="500"
   id="svg3129"
   version="1.1"
   inkscape:version="0.48.4 r9939"
   sodipodi:docname="Новый документ 8">
  <defs
     id="defs3131" />
  <sodipodi:namedview
     id="base"
     pagecolor="#ffffff"
     bordercolor="#666666"
     borderopacity="1.0"
     inkscape:pageopacity="0.0"
     inkscape:pageshadow="2"
     inkscape:zoom="0.98994949"
     inkscape:cx="311.6658"
     inkscape:cy="337.82591"
     inkscape:document-units="px"
     inkscape:current-layer="layer1"
     showgrid="false"
     inkscape:window-width="1920"
     inkscape:window-height="1014"
     inkscape:window-x="0"
     inkscape:window-y="27"
     inkscape:window-maximized="1" />
  <metadata
     id="metadata3134">
    <rdf:RDF>
      <cc:Work
         rdf:about="">
        <dc:format>image/svg+xml</dc:format>
        <dc:type
           rdf:resource="http://purl.org/dc/dcmitype/StillImage" />
        <dc:title></dc:title>
      </cc:Work>
    </rdf:RDF>
  </metadata>
  <g
     inkscape:label="Layer 1"
     inkscape:groupmode="layer"
     id="layer1"
     transform="translate(0,-552.36218)">
    <g
       id="g6"
       transform="matrix(2.4720549,0,0,2.4720549,-534.87743,422.90176)">
      <title
         id="title8">Layer 1</title>
      <circle
         id="svg_3"
         r="91.017395"
         cy="153.5"
         cx="317.5"
         d="m 408.5174,153.5 c 0,50.26752 -40.74988,91.0174 -91.0174,91.0174 -50.26752,0 -91.0174,-40.74988 -91.0174,-91.0174 0,-50.26752 40.74988,-91.017395 91.0174,-91.017395 50.26752,0 91.0174,40.749875 91.0174,91.017395 z"
         sodipodi:cx="317.5"
         sodipodi:cy="153.5"
         sodipodi:rx="91.017395"
         sodipodi:ry="91.017395"
         style="fill:#000000;stroke:#000000;stroke-width:0" />
      <path
         transform="matrix(0.00618192,0.99998089,-0.99998089,0.00618192,469.88848,-176.29032)"
         d="m 327.16363,79.334671 c -30.66827,0 -55.60867,24.421189 -56.56655,54.858169 l 0.10049,0 0,47.80135 c -3.2504,-1.86046 -6.41498,-3.60645 -7.20203,-2.80266 -0.78134,0.79796 1.01239,3.89494 2.92548,7.07921 l 0.0893,-0.0559 19.33939,30.96312 14.05789,-26.42974 0,-0.0111 c 0.009,-0.0193 0.024,-0.0476 0.0335,-0.067 l 5.12518,-9.63619 c 0.30579,-0.76789 0.5315,-1.45039 0.46897,-1.87588 -0.0251,-0.17078 -0.0883,-0.31364 -0.18985,-0.41313 -0.67545,-0.66143 -3.09146,0.61737 -5.71695,2.15501 l 0,-50.19081 c 2.67239,-12.86427 14.03851,-22.55518 27.6915,-22.55518 13.68869,0 25.08023,9.74114 27.71383,22.65567 l 0,84.72702 28.93091,0 0,-82.69482 -0.3573,-0.21216 C 381.85342,102.93159 357.29956,79.334671 327.16364,79.334671 z"
         id="rect6590"
         inkscape:connector-curvature="0"
         style="fill:#ffffff;fill-rule:evenodd;stroke-width:0" />
    </g>
  </g>
</svg>
